<svg width="74" height="65" viewBox="0 0 74 65" fill="none" xmlns="http://www.w3.org/2000/svg">
<path fill-rule="evenodd" clip-rule="evenodd" d="M22.099 49.8217V55.2284H12.8984V49.7891L22.099 49.8217Z" fill="white" stroke="white" stroke-width="0.22" stroke-miterlimit="2.61"/>
<path fill-rule="evenodd" clip-rule="evenodd" d="M67.0799 39.0235H73.5021V7.81615C73.5021 4.96453 72.351 2.98362 70.0515 1.85168C69.0882 1.37822 67.9453 1 66.601 1H17.1125L12.8401 1.03265C5.18255 1.08979 1 5.60669 1 14.499V25.8674H7.09558V14.1044C7.09558 8.81477 10.4209 6.56721 16.6199 6.56721H63.8253C65.9125 6.56721 67.0799 7.38351 67.0799 9.20932V39.0181V39.0235Z" fill="#ECB229" stroke="#ECB229" stroke-width="0.22" stroke-miterlimit="2.61"/>
<path fill-rule="evenodd" clip-rule="evenodd" d="M33.6712 49.8217V55.2284H24.4707V49.7891L33.6712 49.8217Z" fill="white" stroke="white" stroke-width="0.22" stroke-miterlimit="2.61"/>
<path fill-rule="evenodd" clip-rule="evenodd" d="M64.3496 41.4113V47.8329H51.5706C48.7188 47.8329 46.7377 46.682 45.6057 44.3827C45.1322 43.4195 44.7539 42.2766 44.7539 40.9324V35.2401L44.7866 30.9681C44.8736 23.3111 49.3637 19.3684 58.254 19.1289H64.3496V25.224H57.8621C52.572 25.224 50.3243 28.5491 50.3243 34.7476V38.1597C50.3243 40.2467 51.1407 41.4141 52.9666 41.4141H64.3496V41.4113Z" fill="white" stroke="white" stroke-width="0.22" stroke-miterlimit="2.61"/>
<path fill-rule="evenodd" clip-rule="evenodd" d="M67.0799 41.4004H73.5021V57.1905C73.5021 60.0421 72.351 62.023 70.0515 63.1549C69.0882 63.6284 67.9453 64.0066 66.601 64.0066H17.1125L12.8401 63.974C5.18255 63.9141 1 59.3999 1 50.5049V41.4004H1.04354L1.21498 41.8412L1.48982 42.4561L1.78916 43.0466L2.11571 43.6126L2.46675 44.1541L2.845 44.6683L3.24775 45.1554L3.6777 45.6153L4.13215 46.0479L4.61109 46.4506L5.11452 46.8234L5.64244 47.1662L6.19213 47.4791L6.76359 47.7621L7.09286 47.9036V50.8968C7.09286 56.1864 10.4182 58.434 16.6172 58.434H63.8226C65.9098 58.434 67.0772 57.6177 67.0772 55.7919V41.4004H67.0799Z" fill="#ECB229" stroke="#ECB229" stroke-width="0.22" stroke-miterlimit="2.61"/>
<path fill-rule="evenodd" clip-rule="evenodd" d="M35.1679 9.10547H41.5901V41.0258C41.5901 43.8774 40.439 45.8583 38.1395 46.9902C37.1762 47.4637 36.0306 47.7548 34.689 47.8419H17.1125L12.8428 47.8093C5.18255 47.7195 1.23947 43.2298 1 34.3402V28.2451H7.09558V34.732C7.24797 40.019 10.4264 42.5196 16.6199 42.2693H31.9133C34.0005 42.2693 35.1679 41.453 35.1679 39.6272V9.10547Z" fill="white" stroke="white" stroke-width="0.22" stroke-miterlimit="2.61"/>
<path fill-rule="evenodd" clip-rule="evenodd" d="M19.1713 20.5938L27.6561 30.3758L19.653 37.3144L11.1191 27.4725L19.1713 20.5938Z" fill="#ECB229" stroke="#ECB229" stroke-width="0.22" stroke-miterlimit="2.61"/>
<path fill-rule="evenodd" clip-rule="evenodd" d="M29.755 13.2933L28.3726 21.821L19.2891 20.3462L20.6823 11.7695L29.755 13.2933Z" fill="white" stroke="white" stroke-width="0.22" stroke-miterlimit="2.61"/>
</svg>
